<svg width="108" height="108" viewBox="0 0 108 108" fill="none" xmlns="http://www.w3.org/2000/svg">
<path d="M13.9296 26.91L14.9296 25.7C15.1305 25.9004 15.3717 26.0557 15.6372 26.1557C15.9027 26.2557 16.1865 26.2981 16.4696 26.28C17.0502 26.0936 17.5484 25.712 17.8796 25.2C18.2203 24.8327 18.4462 24.3739 18.5296 23.88C18.5464 23.6856 18.5108 23.4903 18.4263 23.3144C18.3419 23.1385 18.2118 22.9885 18.0496 22.88C17.9225 22.7596 17.7692 22.6705 17.6018 22.6195C17.4344 22.5685 17.2574 22.5571 17.0848 22.5862C16.9122 22.6153 16.7488 22.684 16.6073 22.7871C16.4658 22.8901 16.3502 23.0246 16.2696 23.18L15.5396 24.1L14.4796 23.27L15.2096 22.35C15.7196 21.71 15.6996 21.17 15.1496 20.74C15.0299 20.6279 14.8827 20.5494 14.7229 20.5125C14.5631 20.4756 14.3963 20.4816 14.2396 20.53C13.8028 20.7192 13.4309 21.032 13.1696 21.43C12.7457 21.8521 12.4778 22.4057 12.4096 23C12.4252 23.2276 12.494 23.4484 12.6103 23.6446C12.7267 23.8408 12.8874 24.0071 13.0796 24.13L12.0796 25.35C11.7377 25.1048 11.4606 24.7799 11.2725 24.4036C11.0843 24.0272 10.9906 23.6107 10.9996 23.19C11.0736 22.2454 11.4527 21.3504 12.0796 20.64C12.5785 19.9394 13.2748 19.4033 14.0796 19.1C14.3922 18.9883 14.7287 18.961 15.0552 19.0207C15.3817 19.0804 15.6867 19.225 15.9396 19.44C16.1258 19.5619 16.2808 19.7259 16.3919 19.9187C16.5031 20.1115 16.5674 20.3278 16.5796 20.55C16.5474 21.0666 16.382 21.5662 16.0996 22L16.4196 22.25C16.6138 22.0684 16.821 21.9013 17.0396 21.75C17.2264 21.6218 17.4323 21.5239 17.6496 21.46C17.877 21.3852 18.1223 21.3852 18.3496 21.46C18.6311 21.5486 18.8927 21.6913 19.1196 21.88C19.4067 22.081 19.638 22.3516 19.7919 22.6664C19.9458 22.9813 20.0173 23.33 19.9996 23.68C19.8655 24.5455 19.4794 25.3524 18.8896 26C18.3214 26.8058 17.4963 27.3946 16.5496 27.67C16.0839 27.7538 15.6051 27.7288 15.1506 27.597C14.6961 27.4652 14.2782 27.23 13.9296 26.91V26.91Z" fill="white"/>
<path d="M26.65 18.17L24.06 16.5L21.46 18.74L22.72 21.55L21.53 22.55L18 14.49L20.41 12.41L27.87 17.15L26.65 18.17ZM20.88 17.46L22.88 15.75L19.58 13.62L19.28 13.88L20.88 17.46Z" fill="white"/>
<path d="M29.05 16.45L24.79 9.14L29.63 6.31L30.31 7.47L26.8 9.52L30.39 15.67L29.05 16.45Z" fill="white"/>
<path d="M34.9298 3.99999C35.3054 3.85639 35.6895 3.73616 36.0798 3.63999C36.4078 3.56343 36.7431 3.52319 37.0798 3.51999C37.3941 3.51998 37.7046 3.58822 37.9898 3.71999C38.2837 3.86254 38.5404 4.07135 38.7398 4.32999C38.9994 4.6535 39.2023 5.01867 39.3398 5.40999C39.5313 5.87612 39.6265 6.37613 39.6198 6.87999C39.6099 7.28488 39.4736 7.67652 39.2298 7.99999C38.9755 8.31767 38.6675 8.58842 38.3198 8.79999C37.898 9.05453 37.4566 9.27523 36.9998 9.45999L35.8598 9.87999L36.7998 12.39L35.3498 12.93L32.3398 4.99999L34.9298 3.99999ZM36.5698 8.12999C37.0825 7.97771 37.5451 7.69115 37.9098 7.29999C38.0264 7.09412 38.0877 6.86157 38.0877 6.62499C38.0877 6.38841 38.0264 6.15586 37.9098 5.94999C37.6898 5.35999 37.3898 5.02999 37.0298 4.94999C36.4953 4.90482 35.9581 4.99779 35.4698 5.21999L34.2498 5.67999L35.3298 8.57999L36.5698 8.12999Z" fill="white"/>
<path d="M46.4696 1.00001L48.0896 0.730011L46.2796 7.00001L46.5996 8.81001C46.6321 8.92798 46.6368 9.0519 46.6133 9.17199C46.5898 9.29209 46.5386 9.40507 46.464 9.50203C46.3893 9.59899 46.2932 9.67728 46.1831 9.73073C46.073 9.78418 45.952 9.81132 45.8296 9.81001L42.9996 10.27L42.7996 9.00001L44.9996 8.63001L44.7496 7.29001L40.8496 2.00001L42.4696 1.71001L44.9996 5.28001L45.1296 6.03001L45.4996 6.00001L45.3696 5.25001L46.4696 1.00001Z" fill="white"/>
<path d="M50.5001 5.70999H52.0501C52.0131 5.99003 52.0359 6.27473 52.1169 6.54534C52.1979 6.81595 52.3353 7.06633 52.5201 7.27999C53.0192 7.62839 53.623 7.79436 54.2301 7.74999C54.7313 7.7957 55.235 7.69496 55.6801 7.45999C55.8396 7.34958 55.9672 7.19891 56.0497 7.02328C56.1323 6.84766 56.1669 6.65332 56.1501 6.45999C56.1501 5.65999 55.7201 5.24999 54.8201 5.22999H53.6501V3.88999H54.8301C55.6401 3.88999 56.0601 3.55999 56.0701 2.88999C56.0793 2.72725 56.0485 2.56474 55.9805 2.41659C55.9126 2.26844 55.8094 2.13916 55.6801 2.03999C55.261 1.81237 54.7859 1.70834 54.3101 1.73999C53.7411 1.67449 53.1661 1.79369 52.6701 2.07999C52.4997 2.23385 52.367 2.42475 52.282 2.638C52.1971 2.85124 52.1622 3.08114 52.1801 3.30999H50.6401C50.6153 2.88962 50.6935 2.46956 50.8677 2.08621C51.042 1.70286 51.3071 1.36777 51.6401 1.10999C52.4167 0.666182 53.2941 0.428589 54.1886 0.419837C55.083 0.411085 55.9649 0.631464 56.7501 1.05999C57.0292 1.23962 57.2564 1.48925 57.409 1.784C57.5617 2.07876 57.6344 2.40836 57.6201 2.73999C57.6347 2.96112 57.5981 3.18264 57.5131 3.38731C57.4281 3.59198 57.297 3.77427 57.1301 3.91999C56.7137 4.20502 56.2322 4.38043 55.7301 4.42999V4.82999C55.994 4.87584 56.2546 4.93931 56.5101 5.01999C56.7214 5.09558 56.9228 5.19631 57.1101 5.31999C57.3114 5.4564 57.4652 5.65213 57.5501 5.87999C57.656 6.15365 57.7003 6.44726 57.6801 6.73999C57.6904 7.10082 57.603 7.45774 57.4269 7.77288C57.2508 8.08803 56.9928 8.34964 56.6801 8.52999C55.8577 8.95711 54.937 9.15897 54.0114 9.11507C53.0858 9.07116 52.1883 8.78304 51.4101 8.27999C51.0701 7.9511 50.8109 7.54786 50.653 7.10193C50.4951 6.65601 50.4428 6.17956 50.5001 5.70999V5.70999Z" fill="white"/>
<path d="M64.5603 10.2L62.3903 6.20001C62.1786 6.28766 61.9477 6.31868 61.7203 6.29001L61.0903 9.49001L59.5703 9.19001L61.2003 0.920013L62.7203 1.22001L62.0003 4.75001L65.1003 2.23001C65.2601 2.09135 65.4496 1.99128 65.6542 1.93753C65.8588 1.88378 66.073 1.87778 66.2803 1.92001L67.8203 2.23001L67.5603 3.55001L66.1403 3.27001L63.5703 5.35001L66.3603 10.56L64.5603 10.2Z" fill="white"/>
<path d="M73.4705 13.33L73.7805 10.27L70.6005 9.00001L68.6705 11.39L67.2305 10.8L72.8105 3.95001L75.7505 5.15001L74.9105 13.96L73.4705 13.33ZM71.4705 7.87001L73.9005 8.87001L74.3105 5.00001L73.9405 4.85001L71.4705 7.87001Z" fill="white"/>
<path d="M89.7305 19.74C89.4475 19.7445 89.1666 19.6909 88.9052 19.5825C88.6437 19.4742 88.4073 19.3133 88.2104 19.11C88.0056 18.9201 87.8429 18.6894 87.7327 18.4328C87.6224 18.1762 87.5672 17.8993 87.5704 17.62C87.5851 17.0586 87.8119 16.5236 88.2053 16.1227C88.5987 15.7219 89.1294 15.4851 89.6905 15.46C89.9683 15.4542 90.2442 15.5063 90.5008 15.613C90.7573 15.7198 90.9888 15.8788 91.1805 16.08C91.3871 16.269 91.5517 16.4993 91.6637 16.756C91.7756 17.0127 91.8325 17.29 91.8305 17.57C91.8417 17.8497 91.7941 18.1286 91.6907 18.3887C91.5874 18.6488 91.4306 18.8843 91.2305 19.08C91.0371 19.2845 90.8047 19.4482 90.5471 19.5616C90.2895 19.6749 90.0119 19.7356 89.7305 19.74V19.74Z" fill="white"/>
<path d="M97.35 32.53L97.93 34C97.6621 34.0704 97.4119 34.1956 97.195 34.3677C96.9781 34.5399 96.7993 34.7552 96.67 35C96.5484 35.5969 96.633 36.2174 96.91 36.76C97.0617 37.247 97.3539 37.6784 97.75 38C97.9114 38.0921 98.0941 38.1405 98.28 38.1405C98.4658 38.1405 98.6485 38.0921 98.81 38C99.56 37.7 99.81 37.13 99.43 36.3L99 35.26L100.25 34.75L100.69 35.84C100.99 36.6 101.47 36.84 102.12 36.59C102.273 36.535 102.411 36.4433 102.52 36.3231C102.63 36.2028 102.709 36.0576 102.75 35.9C102.798 35.4246 102.708 34.9453 102.49 34.52C102.314 33.9644 101.963 33.4805 101.49 33.14C101.284 33.0393 101.059 32.987 100.83 32.987C100.601 32.987 100.375 33.0393 100.17 33.14L99.5899 31.7C99.9685 31.5137 100.387 31.4226 100.809 31.4348C101.23 31.447 101.643 31.5621 102.01 31.77C102.799 32.2981 103.393 33.0712 103.7 33.97C104.057 34.7446 104.182 35.6059 104.06 36.45C104.003 36.7766 103.861 37.0825 103.649 37.337C103.437 37.5915 103.161 37.7856 102.85 37.9C102.652 38.0018 102.433 38.0548 102.21 38.0548C101.987 38.0548 101.768 38.0018 101.57 37.9C101.152 37.6286 100.808 37.2574 100.57 36.82L100.2 36.96C100.262 37.2195 100.302 37.4838 100.32 37.75C100.354 37.9754 100.354 38.2046 100.32 38.43C100.276 38.6677 100.157 38.885 99.98 39.05C99.6112 39.3915 99.1407 39.6028 98.6404 39.6515C98.1402 39.7003 97.6377 39.5838 97.21 39.32C96.5068 38.7899 95.9776 38.0622 95.69 37.23C95.2678 36.342 95.1619 35.3364 95.39 34.38C95.5497 33.9401 95.8102 33.5437 96.1505 33.2225C96.4908 32.9013 96.9016 32.6641 97.35 32.53Z" fill="white"/>
<path d="M98.6699 47.9L101.4 46.47L100.74 43.1L97.6799 42.81L97.3799 41.28L106.17 42.17L106.78 45.29L98.9999 49.43L98.6699 47.9ZM102.14 43.24L102.64 45.81L106.12 44L106.05 43.61L102.14 43.24Z" fill="white"/>
<path d="M99 50.86L107.45 50.72L107.54 56.34H106.2L106.14 52.27L99 52.41V50.86Z" fill="white"/>
<path d="M106.85 62.09C106.794 62.4885 106.71 62.8828 106.6 63.27C106.507 63.6037 106.369 63.9233 106.19 64.22C106.038 64.4964 105.826 64.7355 105.57 64.92C105.301 65.1034 104.993 65.2231 104.67 65.27C104.263 65.3349 103.848 65.3349 103.44 65.27C102.938 65.2072 102.455 65.0403 102.02 64.78C101.675 64.5671 101.408 64.2477 101.26 63.87C101.11 63.4943 101.029 63.0946 101.02 62.69C101.017 62.1908 101.057 61.6922 101.14 61.2L101.33 59.99L98.6904 59.57L98.9304 58L107.29 59.32L106.85 62.09ZM102.45 61.48C102.329 62.0026 102.35 62.5482 102.51 63.06C102.634 63.2605 102.806 63.4269 103.01 63.5439C103.215 63.6609 103.445 63.7249 103.68 63.73C103.903 63.7985 104.139 63.8088 104.367 63.7597C104.595 63.7107 104.806 63.6041 104.98 63.45C105.282 63.0069 105.464 62.4938 105.51 61.96L105.72 60.67L102.66 60.19L102.45 61.48Z" fill="white"/>
<path d="M103.79 73.63L103.25 75.18L98.6704 70.5L96.9404 69.9C96.8164 69.8733 96.7005 69.8176 96.6022 69.7373C96.504 69.657 96.4263 69.5545 96.3755 69.4382C96.3247 69.322 96.3023 69.1953 96.3101 69.0687C96.3179 68.9421 96.3557 68.8191 96.4204 68.71L97.4204 66.08L98.6904 66.52L97.8704 68.59L99.1704 69.04L105.65 68.23L105.11 69.79L100.8 70.22L100.09 69.97L99.9604 70.35L100.67 70.6L103.79 73.63Z" fill="white"/>
<path d="M97.6396 74.88L96.8696 76.22C96.6415 76.0507 96.3799 75.9318 96.1023 75.8715C95.8247 75.8111 95.5374 75.8106 95.2596 75.87C94.707 76.1372 94.2624 76.5853 93.9996 77.14C93.7177 77.5572 93.5615 78.0466 93.5496 78.55C93.5951 78.8088 93.7216 79.0464 93.9109 79.2286C94.1002 79.4108 94.3425 79.5282 94.6028 79.5638C94.8631 79.5994 95.128 79.5513 95.3593 79.4267C95.5906 79.302 95.7763 79.107 95.8896 78.87L96.4796 77.87L97.6496 78.54L97.0596 79.54C96.6496 80.24 96.7496 80.77 97.3496 81.12C97.4884 81.208 97.6468 81.2605 97.8108 81.2727C97.9748 81.2849 98.1392 81.2565 98.2896 81.19C98.6831 80.9455 99.0042 80.6002 99.2196 80.19C99.5457 79.7208 99.7171 79.1614 99.7096 78.59C99.6554 78.3702 99.5515 78.1657 99.4058 77.9923C99.2602 77.819 99.0767 77.6813 98.8696 77.59L99.6396 76.25C100.019 76.432 100.349 76.7038 100.6 77.0418C100.851 77.3798 101.015 77.7739 101.08 78.19C101.092 79.085 100.875 79.9683 100.45 80.7559C100.024 81.5435 99.4046 82.2093 98.6496 82.69C98.3567 82.8459 98.0282 82.9223 97.6966 82.9118C97.365 82.9013 97.0419 82.8041 96.7596 82.63C96.5577 82.537 96.3802 82.3981 96.2414 82.2245C96.1025 82.051 96.006 81.8474 95.9596 81.63C95.9197 81.1278 96.0021 80.6234 96.1996 80.16L95.8596 79.97C95.6496 80.21 95.4696 80.4 95.3096 80.55C95.1419 80.7026 94.9533 80.8305 94.7496 80.93C94.5372 81.0395 94.2964 81.0814 94.0596 81.05C93.7655 81.0012 93.4836 80.8959 93.2296 80.74C92.9113 80.5729 92.644 80.3231 92.4557 80.0169C92.2674 79.7107 92.1651 79.3594 92.1596 79C92.1376 78.1185 92.3815 77.2509 92.8596 76.51C93.3007 75.6263 94.0312 74.9204 94.9296 74.51C95.3783 74.3525 95.858 74.3039 96.3292 74.3682C96.8004 74.4325 97.2495 74.6079 97.6396 74.88Z" fill="white"/>
<path d="M86.8602 84.8L91.3802 84.89C91.414 84.6619 91.5033 84.4456 91.6402 84.26L89.1702 82.12L90.1702 80.95L96.5802 86.48L95.5802 87.65L92.8502 85.3L93.5002 89.24C93.5448 89.4457 93.5399 89.6589 93.486 89.8623C93.4321 90.0657 93.3307 90.2534 93.1902 90.41L92.1902 91.6L91.1902 90.72L92.1302 89.63L91.6102 86.35L85.7002 86.19L86.8602 84.8Z" fill="white"/>
<path d="M79.73 91L82.24 92.78L84.94 90.66L83.8 87.82L85.03 86.82L88.24 95.05L85.74 97.05L78.5 92L79.73 91ZM85.46 92L83.39 93.6L86.59 95.88L86.91 95.63L85.46 92Z" fill="white"/>
<path d="M66.1401 102C66.2791 101.755 66.4657 101.54 66.689 101.369C66.9122 101.197 67.1676 101.071 67.4401 101C67.7062 100.916 67.9869 100.889 68.2641 100.92C68.5414 100.951 68.8092 101.039 69.0501 101.18C69.2969 101.319 69.5128 101.507 69.6847 101.732C69.8566 101.957 69.9809 102.215 70.0501 102.49C70.1336 102.753 70.1633 103.03 70.1376 103.305C70.1118 103.58 70.031 103.847 69.9001 104.09C69.7686 104.337 69.5867 104.554 69.3662 104.726C69.1457 104.898 68.8915 105.022 68.6201 105.09C68.3522 105.17 68.0712 105.196 67.7931 105.167C67.5151 105.138 67.2456 105.054 67.0001 104.92C66.5084 104.64 66.1454 104.179 65.9884 103.636C65.8315 103.092 65.8931 102.509 66.1601 102.01L66.1401 102Z" fill="white"/>
<path d="M51.2405 102.29L49.7005 102.08C49.7698 101.805 49.7798 101.518 49.7298 101.239C49.6798 100.959 49.571 100.694 49.4105 100.46C48.9514 100.06 48.3688 99.8307 47.7605 99.81C47.2695 99.7025 46.7575 99.7443 46.2905 99.93C46.1258 100.019 45.9862 100.148 45.8848 100.305C45.7834 100.463 45.7234 100.643 45.7105 100.83C45.6105 101.64 46.0005 102.09 46.8905 102.21L48.0605 102.36L47.8805 103.7L46.7105 103.54C45.9105 103.44 45.4605 103.73 45.3705 104.42C45.3413 104.58 45.3515 104.745 45.4003 104.9C45.4491 105.055 45.535 105.196 45.6505 105.31C46.0433 105.582 46.5034 105.741 46.9805 105.77C47.5399 105.897 48.1253 105.841 48.6505 105.61C48.8374 105.479 48.9908 105.305 49.0985 105.104C49.2062 104.902 49.2651 104.678 49.2705 104.45L50.8105 104.65C50.7843 105.071 50.6559 105.48 50.4364 105.841C50.2169 106.201 49.9128 106.503 49.5505 106.72C48.7004 107.145 47.734 107.279 46.8005 107.1C45.9501 107.037 45.1383 106.72 44.4705 106.19C44.2139 105.979 44.017 105.705 43.8994 105.394C43.7819 105.084 43.7477 104.748 43.8005 104.42C43.81 104.197 43.8721 103.979 43.9815 103.785C44.091 103.59 44.2448 103.424 44.4305 103.3C44.8771 103.075 45.3704 102.959 45.8705 102.96L45.9205 102.57C45.6687 102.491 45.4217 102.397 45.1805 102.29C44.9726 102.197 44.7804 102.072 44.6105 101.92C44.4257 101.763 44.2931 101.554 44.2305 101.32C44.1784 101.029 44.1784 100.731 44.2305 100.44C44.2657 100.085 44.3919 99.7443 44.5968 99.4518C44.8017 99.1593 45.0785 98.9245 45.4005 98.77C46.2094 98.4204 47.104 98.3195 47.9705 98.48C48.9504 98.5535 49.8769 98.9551 50.6005 99.62C50.9064 99.9852 51.1234 100.416 51.2345 100.88C51.3455 101.343 51.3476 101.826 51.2405 102.29V102.29Z" fill="white"/>
<path d="M37.2395 95.86L37.1295 98.94L40.3895 100L42.1495 97.47L43.6295 97.97L38.5195 105.18L35.5195 104.18L35.7695 95.34L37.2395 95.86ZM39.5795 101.17L37.0895 100.34L36.9995 104.27L37.3795 104.39L39.5795 101.17Z" fill="white"/>
<path d="M34.5295 94.67L30.4295 102.07L25.5195 99.35L26.1695 98.17L29.7295 100.17L33.1795 93.94L34.5295 94.67Z" fill="white"/>
<path d="M20.8704 96C20.5517 95.7552 20.2509 95.4878 19.9704 95.2C19.73 94.9478 19.5186 94.6694 19.3404 94.37C19.1762 94.1034 19.0768 93.802 19.0504 93.49C19.021 93.1504 19.0689 92.8085 19.1904 92.49C19.3364 92.1045 19.546 91.7462 19.8104 91.43C20.1094 91.018 20.4951 90.6767 20.9404 90.43C21.2941 90.236 21.7002 90.159 22.1004 90.21C22.504 90.2701 22.8935 90.4022 23.2504 90.6C23.6887 90.8361 24.1009 91.1177 24.4804 91.44L25.4804 92.2L27.1504 90.11L28.3604 91.11L23.0004 97.69L20.8704 96ZM23.5804 92.48C23.1873 92.116 22.7039 91.8639 22.1804 91.75C21.8104 91.75 21.4204 91.93 21.0204 92.43C20.6204 92.93 20.4904 93.35 20.6204 93.7C20.8443 94.1798 21.1889 94.5932 21.6204 94.9L22.6204 95.72L24.5504 93.3L23.5804 92.48Z" fill="white"/>
<path d="M12.3595 87.59L11.2695 86.35L17.5895 84.69L18.9995 83.48C19.0824 83.3833 19.1874 83.3081 19.3057 83.2608C19.4239 83.2135 19.5518 83.1954 19.6785 83.2082C19.8052 83.221 19.9269 83.2642 20.0333 83.3341C20.1397 83.4041 20.2276 83.4987 20.2895 83.61L22.0695 85.79L21.0695 86.68L19.6395 85L18.6395 85.9L16.1495 91.9L14.9995 90.65L16.7495 86.65L17.3195 86.15L17.0595 85.85L16.4895 86.35L12.3595 87.59Z" fill="white"/>
<path d="M14.29 81.61L13.5 80.28C13.7584 80.1639 13.9893 79.9942 14.1772 79.7822C14.3651 79.5701 14.5058 79.3206 14.59 79.05C14.6301 78.442 14.4529 77.8395 14.09 77.35C13.8742 76.8941 13.5257 76.5142 13.09 76.26C12.9172 76.1852 12.728 76.1561 12.5406 76.1753C12.3533 76.1946 12.174 76.2616 12.02 76.37C11.8633 76.4468 11.7263 76.5586 11.6196 76.6966C11.5129 76.8347 11.4394 76.9955 11.4046 77.1665C11.3698 77.3375 11.3748 77.5142 11.419 77.683C11.4633 77.8517 11.5458 78.0081 11.66 78.14L12.26 79.14L11.11 79.83L10.51 78.83C10.09 78.13 9.59 77.96 8.99 78.31C8.84432 78.3864 8.71973 78.4976 8.62728 78.6336C8.53483 78.7697 8.47737 78.9264 8.46 79.09C8.48554 79.5677 8.64495 80.0286 8.92 80.42C9.16532 80.9351 9.56805 81.3588 10.07 81.63C10.2896 81.6957 10.5216 81.7091 10.7473 81.6692C10.973 81.6292 11.1862 81.5371 11.37 81.4L12.16 82.74C11.8089 82.9743 11.4065 83.1202 10.9869 83.1655C10.5673 83.2108 10.1429 83.154 9.75 83C8.89022 82.5927 8.18767 81.9148 7.75 81.07C7.27133 80.3677 7.01044 79.5399 7 78.69C7.01145 78.3564 7.10971 78.0314 7.28507 77.7473C7.46044 77.4633 7.70686 77.2298 8 77.07C8.18222 76.9415 8.39196 76.8574 8.61247 76.8244C8.83298 76.7915 9.05815 76.8105 9.27 76.88C9.72636 77.0868 10.1248 77.4027 10.43 77.8L10.77 77.6C10.6756 77.3514 10.5955 77.0977 10.53 76.84C10.479 76.6205 10.4588 76.3951 10.47 76.17C10.4778 75.9271 10.5618 75.6927 10.71 75.5C10.8948 75.2716 11.1224 75.0814 11.38 74.94C11.6752 74.7506 12.0142 74.64 12.3643 74.619C12.7145 74.598 13.0642 74.6672 13.38 74.82C14.1552 75.24 14.7885 75.8803 15.2 76.66C15.7767 77.4679 16.0591 78.4491 16 79.44C15.9029 79.9096 15.6978 80.3501 15.401 80.7268C15.1042 81.1034 14.7239 81.4058 14.29 81.61V81.61Z" fill="white"/>
<path d="M10.9997 67.37L8.69973 71.26C8.88508 71.3996 9.03003 71.586 9.11973 71.8L12.1897 70.7L12.7097 72.16L4.70973 75L4.18973 73.54L7.58973 72.33L3.82973 71C3.63294 70.9243 3.45595 70.8049 3.31215 70.6507C3.16835 70.4965 3.06152 70.3116 2.99973 70.11L2.46973 68.62L3.73973 68.17L4.22973 69.54L7.30973 70.7L10.3597 65.64L10.9997 67.37Z" fill="white"/>
<path d="M9.10965 58.11L6.31965 59.41L6.81965 62.8L9.81965 63.24L10.0496 64.78L1.35965 63.49L0.889648 60.35L8.88965 56.57L9.10965 58.11ZM5.42965 62.61L5.04965 60L1.48965 61.67L1.53965 62.06L5.42965 62.61Z" fill="white"/>
<path d="M6.26993 40.84C6.41882 41.0811 6.51614 41.3504 6.55572 41.6309C6.59531 41.9115 6.57631 42.1972 6.49993 42.47C6.44273 42.7416 6.32962 42.9984 6.16779 43.2239C6.00595 43.4495 5.79894 43.6388 5.55993 43.78C5.31921 43.9253 5.05129 44.0198 4.77269 44.0576C4.49408 44.0954 4.21067 44.0758 3.93993 44C3.66819 43.9464 3.41055 43.837 3.18333 43.6786C2.95611 43.5202 2.76425 43.3164 2.61993 43.08C2.46714 42.8463 2.36659 42.5824 2.32517 42.3062C2.28375 42.0301 2.30243 41.7483 2.37993 41.48C2.44495 41.201 2.56747 40.9386 2.73966 40.7095C2.91185 40.4805 3.12992 40.29 3.37993 40.15C3.61445 39.9991 3.87795 39.8989 4.15349 39.8558C4.42904 39.8128 4.71054 39.8278 4.97993 39.9C5.24646 39.9635 5.49773 40.0793 5.71917 40.2407C5.94061 40.402 6.12782 40.6057 6.26993 40.84V40.84Z" fill="white"/>
</svg>
