<svg width="78" height="60" viewBox="0 0 78 60" fill="none" xmlns="http://www.w3.org/2000/svg">
<g clip-path="url(#clip0)">
<circle cx="43.5" cy="11.25" r="4.5" fill="#FFDC62"/>
<circle cx="73.5" cy="11.25" r="4.5" fill="#FFDC62"/>
<path d="M39 -7.5H43.5C49.6335 -7.5 55.0791 -4.55496 58.5 -0.00182819C61.9209 -4.55496 67.3665 -7.5 73.5 -7.5H78V0H73.5C67.2868 0 62.25 5.0368 62.25 11.25L58.5 6.75L54.75 11.25C54.75 5.0368 49.7132 0 43.5 0H39V-7.5Z" fill="#875AEC"/>
<path d="M54.75 11.25L58.5 15.75L62.25 11.25C62.25 17.4632 67.2868 22.5 73.5 22.5H78V30H73.5C67.3665 30 61.9209 27.055 58.5 22.5018C55.0791 27.055 49.6335 30 43.5 30H39V22.5H43.5C49.7132 22.5 54.75 17.4632 54.75 11.25Z" fill="#875AEC"/>
<circle cx="4.5" cy="41.25" r="4.5" fill="#FFDC62"/>
<circle cx="34.5" cy="41.25" r="4.5" fill="#FFDC62"/>
<path d="M0 22.5H4.5C10.6335 22.5 16.0791 25.445 19.5 29.9982C22.9209 25.445 28.3665 22.5 34.5 22.5H39V30H34.5C28.2868 30 23.25 35.0368 23.25 41.25L19.5 36.75L15.75 41.25C15.75 35.0368 10.7132 30 4.5 30H0V22.5Z" fill="#875AEC"/>
<path d="M15.75 41.25L19.5 45.75L23.25 41.25C23.25 47.4632 28.2868 52.5 34.5 52.5H39V60H34.5C28.3665 60 22.9209 57.055 19.5 52.5018C16.0791 57.055 10.6335 60 4.5 60H0V52.5H4.5C10.7132 52.5 15.75 47.4632 15.75 41.25Z" fill="#875AEC"/>
<g clip-path="url(#clip1)">
<path d="M39 52.5H43.5C49.6335 52.5 55.0791 55.445 58.5 59.9982C61.9209 55.445 67.3665 52.5 73.5 52.5H78V60H73.5C67.2868 60 62.25 65.0368 62.25 71.25L58.5 66.75L54.75 71.25C54.75 65.0368 49.7132 60 43.5 60H39V52.5Z" fill="#875AEC"/>
<path d="M54.75 71.25L58.5 75.75L62.25 71.25C62.25 77.4632 67.2868 82.5 73.5 82.5H78V90H73.5C67.3665 90 61.9209 87.055 58.5 82.5018C55.0791 87.055 49.6335 90 43.5 90H39V82.5H43.5C49.7132 82.5 54.75 77.4632 54.75 71.25Z" fill="#875AEC"/>
</g>
</g>
<defs>
<clipPath id="clip0">
<rect width="78" height="60" fill="white"/>
</clipPath>
<clipPath id="clip1">
<rect width="78" height="7.5" fill="white" transform="translate(0 52.5)"/>
</clipPath>
</defs>
</svg>
