<svg width="52" height="40" viewBox="0 0 52 40" fill="none" xmlns="http://www.w3.org/2000/svg">
<g clip-path="url(#clip0)">
<circle cx="29" cy="7.5" r="3" fill="#FFDC62"/>
<circle cx="49" cy="7.5" r="3" fill="#FFDC62"/>
<path d="M26 -5H29C33.089 -5 36.7194 -3.03664 39 -0.0012188C41.2806 -3.03664 44.911 -5 49 -5H52V0H49C44.8579 0 41.5 3.35786 41.5 7.5L39 4.5L36.5 7.5C36.5 3.35786 33.1421 0 29 0H26V-5Z" fill="#875AEC"/>
<path d="M36.5 7.5L39 10.5L41.5 7.5C41.5 11.6421 44.8579 15 49 15H52V20H49C44.911 20 41.2806 18.0366 39 15.0012C36.7194 18.0366 33.089 20 29 20H26V15H29C33.1421 15 36.5 11.6421 36.5 7.5Z" fill="#875AEC"/>
<circle cx="3" cy="27.5" r="3" fill="#FFDC62"/>
<circle cx="23" cy="27.5" r="3" fill="#FFDC62"/>
<path d="M0 15H3C7.089 15 10.7194 16.9634 13 19.9988C15.2806 16.9634 18.911 15 23 15H26V20H23C18.8579 20 15.5 23.3579 15.5 27.5L13 24.5L10.5 27.5C10.5 23.3579 7.14214 20 3 20H0V15Z" fill="#875AEC"/>
<path d="M10.5 27.5L13 30.5L15.5 27.5C15.5 31.6421 18.8579 35 23 35H26V40H23C18.911 40 15.2806 38.0366 13 35.0012C10.7194 38.0366 7.089 40 3 40H0V35H3C7.14214 35 10.5 31.6421 10.5 27.5Z" fill="#875AEC"/>
<g clip-path="url(#clip1)">
<path d="M26 35H29C33.089 35 36.7194 36.9634 39 39.9988C41.2806 36.9634 44.911 35 49 35H52V40H49C44.8579 40 41.5 43.3579 41.5 47.5L39 44.5L36.5 47.5C36.5 43.3579 33.1421 40 29 40H26V35Z" fill="#875AEC"/>
<path d="M36.5 47.5L39 50.5L41.5 47.5C41.5 51.6421 44.8579 55 49 55H52V60H49C44.911 60 41.2806 58.0366 39 55.0012C36.7194 58.0366 33.089 60 29 60H26V55H29C33.1421 55 36.5 51.6421 36.5 47.5Z" fill="#875AEC"/>
</g>
</g>
<defs>
<clipPath id="clip0">
<rect width="52" height="40" fill="white"/>
</clipPath>
<clipPath id="clip1">
<rect width="52" height="5" fill="white" transform="translate(0 35)"/>
</clipPath>
</defs>
</svg>
