<svg width="208" height="160" viewBox="0 0 208 160" fill="none" xmlns="http://www.w3.org/2000/svg">
<g clip-path="url(#clip0)">
<circle cx="116" cy="30" r="12" fill="#FFDC62"/>
<circle cx="196" cy="30" r="12" fill="#FFDC62"/>
<path d="M104 -20H116C132.356 -20 146.878 -12.1466 156 -0.00487518C165.122 -12.1466 179.644 -20 196 -20H208V0H196C179.431 0 166 13.4315 166 30L156 18L146 30C146 13.4315 132.569 0 116 0H104V-20Z" fill="#875AEC"/>
<path d="M146 30L156 42L166 30C166 46.5685 179.431 60 196 60H208V80H196C179.644 80 165.122 72.1466 156 60.0049C146.878 72.1466 132.356 80 116 80H104V60H116C132.569 60 146 46.5685 146 30Z" fill="#875AEC"/>
<circle cx="12" cy="110" r="12" fill="#FFDC62"/>
<circle cx="92" cy="110" r="12" fill="#FFDC62"/>
<path d="M0 60H12C28.356 60 42.8777 67.8534 52 79.9951C61.1223 67.8534 75.644 60 92 60H104V80H92C75.4315 80 62 93.4315 62 110L52 98L42 110C42 93.4315 28.5685 80 12 80H0V60Z" fill="#875AEC"/>
<path d="M42 110L52 122L62 110C62 126.569 75.4315 140 92 140H104V160H92C75.644 160 61.1223 152.147 52 140.005C42.8777 152.147 28.356 160 12 160H0V140H12C28.5685 140 42 126.569 42 110Z" fill="#875AEC"/>
<g clip-path="url(#clip1)">
<path d="M104 140H116C132.356 140 146.878 147.853 156 159.995C165.122 147.853 179.644 140 196 140H208V160H196C179.431 160 166 173.431 166 190L156 178L146 190C146 173.431 132.569 160 116 160H104V140Z" fill="#875AEC"/>
<path d="M146 190L156 202L166 190C166 206.569 179.431 220 196 220H208V240H196C179.644 240 165.122 232.147 156 220.005C146.878 232.147 132.356 240 116 240H104V220H116C132.569 220 146 206.569 146 190Z" fill="#875AEC"/>
</g>
</g>
<defs>
<clipPath id="clip0">
<rect width="208" height="160" fill="white"/>
</clipPath>
<clipPath id="clip1">
<rect width="208" height="20" fill="white" transform="translate(0 140)"/>
</clipPath>
</defs>
</svg>
