<svg width="91" height="70" viewBox="0 0 91 70" fill="none" xmlns="http://www.w3.org/2000/svg">
<g clip-path="url(#clip0)">
<circle cx="50.75" cy="13.125" r="5.25" fill="#FFDC62"/>
<circle cx="85.75" cy="13.125" r="5.25" fill="#FFDC62"/>
<path d="M45.5 -8.75H50.75C57.9057 -8.75 64.259 -5.31412 68.25 -0.0021323C72.241 -5.31412 78.5943 -8.75 85.75 -8.75H91V5.96046e-07H85.75C78.5013 5.96046e-07 72.625 5.87626 72.625 13.125L68.25 7.875L63.875 13.125C63.875 5.87626 57.9987 5.96046e-07 50.75 5.96046e-07H45.5V-8.75Z" fill="#875AEC"/>
<path d="M63.875 13.125L68.25 18.375L72.625 13.125C72.625 20.3737 78.5013 26.25 85.75 26.25H91V35H85.75C78.5943 35 72.241 31.5641 68.25 26.2521C64.259 31.5641 57.9057 35 50.75 35H45.5V26.25H50.75C57.9987 26.25 63.875 20.3737 63.875 13.125Z" fill="#875AEC"/>
<circle cx="5.25" cy="48.125" r="5.25" fill="#FFDC62"/>
<circle cx="40.25" cy="48.125" r="5.25" fill="#FFDC62"/>
<path d="M0 26.25H5.25C12.4057 26.25 18.759 29.6859 22.75 34.9979C26.741 29.6859 33.0943 26.25 40.25 26.25H45.5V35H40.25C33.0013 35 27.125 40.8763 27.125 48.125L22.75 42.875L18.375 48.125C18.375 40.8763 12.4987 35 5.25 35H0V26.25Z" fill="#875AEC"/>
<path d="M18.375 48.125L22.75 53.375L27.125 48.125C27.125 55.3737 33.0013 61.25 40.25 61.25H45.5V70H40.25C33.0943 70 26.741 66.5641 22.75 61.2521C18.759 66.5641 12.4057 70 5.25 70H0V61.25H5.25C12.4987 61.25 18.375 55.3737 18.375 48.125Z" fill="#875AEC"/>
<g clip-path="url(#clip1)">
<path d="M45.5 61.25H50.75C57.9057 61.25 64.259 64.6859 68.25 69.9979C72.241 64.6859 78.5943 61.25 85.75 61.25H91V70H85.75C78.5013 70 72.625 75.8763 72.625 83.125L68.25 77.875L63.875 83.125C63.875 75.8763 57.9987 70 50.75 70H45.5V61.25Z" fill="#875AEC"/>
<path d="M63.875 83.125L68.25 88.375L72.625 83.125C72.625 90.3737 78.5013 96.25 85.75 96.25H91V105H85.75C78.5943 105 72.241 101.564 68.25 96.2521C64.259 101.564 57.9057 105 50.75 105H45.5V96.25H50.75C57.9987 96.25 63.875 90.3737 63.875 83.125Z" fill="#875AEC"/>
</g>
</g>
<defs>
<clipPath id="clip0">
<rect width="91" height="70" fill="white"/>
</clipPath>
<clipPath id="clip1">
<rect width="91" height="8.75" fill="white" transform="translate(0 61.25)"/>
</clipPath>
</defs>
</svg>
