<svg width="182" height="140" viewBox="0 0 182 140" fill="none" xmlns="http://www.w3.org/2000/svg">
<g clip-path="url(#clip0)">
<circle cx="50.75" cy="13.125" r="5.25" fill="#FFDC62"/>
<circle cx="85.75" cy="13.125" r="5.25" fill="#FFDC62"/>
<path d="M45.5 -8.75H50.75C57.9057 -8.75 64.259 -5.31412 68.25 -0.0021323C72.241 -5.31412 78.5943 -8.75 85.75 -8.75H91V5.96046e-07H85.75C78.5013 5.96046e-07 72.625 5.87626 72.625 13.125L68.25 7.875L63.875 13.125C63.875 5.87626 57.9987 5.96046e-07 50.75 5.96046e-07H45.5V-8.75Z" fill="#875AEC"/>
<path d="M63.875 13.125L68.25 18.375L72.625 13.125C72.625 20.3737 78.5013 26.25 85.75 26.25H91V35H85.75C78.5943 35 72.241 31.5641 68.25 26.2521C64.259 31.5641 57.9057 35 50.75 35H45.5V26.25H50.75C57.9987 26.25 63.875 20.3737 63.875 13.125Z" fill="#875AEC"/>
<circle cx="5.25" cy="48.125" r="5.25" fill="#FFDC62"/>
<circle cx="40.25" cy="48.125" r="5.25" fill="#FFDC62"/>
<path d="M0 26.25H5.25C12.4057 26.25 18.759 29.6859 22.75 34.9979C26.741 29.6859 33.0943 26.25 40.25 26.25H45.5V35H40.25C33.0013 35 27.125 40.8763 27.125 48.125L22.75 42.875L18.375 48.125C18.375 40.8763 12.4987 35 5.25 35H0V26.25Z" fill="#875AEC"/>
<path d="M18.375 48.125L22.75 53.375L27.125 48.125C27.125 55.3737 33.0013 61.25 40.25 61.25H45.5V70H40.25C33.0943 70 26.741 66.5641 22.75 61.2521C18.759 66.5641 12.4057 70 5.25 70H0V61.25H5.25C12.4987 61.25 18.375 55.3737 18.375 48.125Z" fill="#875AEC"/>
<g clip-path="url(#clip1)">
<path d="M45.5 61.25H50.75C57.9057 61.25 64.259 64.6859 68.25 69.9979C72.241 64.6859 78.5943 61.25 85.75 61.25H91V70H85.75C78.5013 70 72.625 75.8763 72.625 83.125L68.25 77.875L63.875 83.125C63.875 75.8763 57.9987 70 50.75 70H45.5V61.25Z" fill="#875AEC"/>
<path d="M63.875 83.125L68.25 88.375L72.625 83.125C72.625 90.3737 78.5013 96.25 85.75 96.25H91V105H85.75C78.5943 105 72.241 101.564 68.25 96.2521C64.259 101.564 57.9057 105 50.75 105H45.5V96.25H50.75C57.9987 96.25 63.875 90.3737 63.875 83.125Z" fill="#875AEC"/>
</g>
</g>
<g clip-path="url(#clip2)">
<circle cx="141.75" cy="13.125" r="5.25" fill="#FFDC62"/>
<circle cx="176.75" cy="13.125" r="5.25" fill="#FFDC62"/>
<path d="M136.5 -8.75H141.75C148.906 -8.75 155.259 -5.31412 159.25 -0.0021323C163.241 -5.31412 169.594 -8.75 176.75 -8.75H182V5.96046e-07H176.75C169.501 5.96046e-07 163.625 5.87626 163.625 13.125L159.25 7.875L154.875 13.125C154.875 5.87626 148.999 5.96046e-07 141.75 5.96046e-07H136.5V-8.75Z" fill="#875AEC"/>
<path d="M154.875 13.125L159.25 18.375L163.625 13.125C163.625 20.3737 169.501 26.25 176.75 26.25H182V35H176.75C169.594 35 163.241 31.5641 159.25 26.2521C155.259 31.5641 148.906 35 141.75 35H136.5V26.25H141.75C148.999 26.25 154.875 20.3737 154.875 13.125Z" fill="#875AEC"/>
<circle cx="96.25" cy="48.125" r="5.25" fill="#FFDC62"/>
<circle cx="131.25" cy="48.125" r="5.25" fill="#FFDC62"/>
<path d="M91 26.25H96.25C103.406 26.25 109.759 29.6859 113.75 34.9979C117.741 29.6859 124.094 26.25 131.25 26.25H136.5V35H131.25C124.001 35 118.125 40.8763 118.125 48.125L113.75 42.875L109.375 48.125C109.375 40.8763 103.499 35 96.25 35H91V26.25Z" fill="#875AEC"/>
<path d="M109.375 48.125L113.75 53.375L118.125 48.125C118.125 55.3737 124.001 61.25 131.25 61.25H136.5V70H131.25C124.094 70 117.741 66.5641 113.75 61.2521C109.759 66.5641 103.406 70 96.25 70H91V61.25H96.25C103.499 61.25 109.375 55.3737 109.375 48.125Z" fill="#875AEC"/>
<g clip-path="url(#clip3)">
<path d="M136.5 61.25H141.75C148.906 61.25 155.259 64.6859 159.25 69.9979C163.241 64.6859 169.594 61.25 176.75 61.25H182V70H176.75C169.501 70 163.625 75.8763 163.625 83.125L159.25 77.875L154.875 83.125C154.875 75.8763 148.999 70 141.75 70H136.5V61.25Z" fill="#875AEC"/>
<path d="M154.875 83.125L159.25 88.375L163.625 83.125C163.625 90.3737 169.501 96.25 176.75 96.25H182V105H176.75C169.594 105 163.241 101.564 159.25 96.2521C155.259 101.564 148.906 105 141.75 105H136.5V96.25H141.75C148.999 96.25 154.875 90.3737 154.875 83.125Z" fill="#875AEC"/>
</g>
</g>
<g clip-path="url(#clip4)">
<circle cx="50.75" cy="83.125" r="5.25" fill="#FFDC62"/>
<circle cx="85.75" cy="83.125" r="5.25" fill="#FFDC62"/>
<path d="M45.5 61.25H50.75C57.9057 61.25 64.259 64.6859 68.25 69.9979C72.241 64.6859 78.5943 61.25 85.75 61.25H91V70H85.75C78.5013 70 72.625 75.8763 72.625 83.125L68.25 77.875L63.875 83.125C63.875 75.8763 57.9987 70 50.75 70H45.5V61.25Z" fill="#875AEC"/>
<path d="M63.875 83.125L68.25 88.375L72.625 83.125C72.625 90.3737 78.5013 96.25 85.75 96.25H91V105H85.75C78.5943 105 72.241 101.564 68.25 96.2521C64.259 101.564 57.9057 105 50.75 105H45.5V96.25H50.75C57.9987 96.25 63.875 90.3737 63.875 83.125Z" fill="#875AEC"/>
<circle cx="5.25" cy="118.125" r="5.25" fill="#FFDC62"/>
<circle cx="40.25" cy="118.125" r="5.25" fill="#FFDC62"/>
<path d="M0 96.25H5.25C12.4057 96.25 18.759 99.6859 22.75 104.998C26.741 99.6859 33.0943 96.25 40.25 96.25H45.5V105H40.25C33.0013 105 27.125 110.876 27.125 118.125L22.75 112.875L18.375 118.125C18.375 110.876 12.4987 105 5.25 105H0V96.25Z" fill="#875AEC"/>
<path d="M18.375 118.125L22.75 123.375L27.125 118.125C27.125 125.374 33.0013 131.25 40.25 131.25H45.5V140H40.25C33.0943 140 26.741 136.564 22.75 131.252C18.759 136.564 12.4057 140 5.25 140H0V131.25H5.25C12.4987 131.25 18.375 125.374 18.375 118.125Z" fill="#875AEC"/>
<g clip-path="url(#clip5)">
<path d="M45.5 131.25H50.75C57.9057 131.25 64.259 134.686 68.25 139.998C72.241 134.686 78.5943 131.25 85.75 131.25H91V140H85.75C78.5013 140 72.625 145.876 72.625 153.125L68.25 147.875L63.875 153.125C63.875 145.876 57.9987 140 50.75 140H45.5V131.25Z" fill="#875AEC"/>
<path d="M63.875 153.125L68.25 158.375L72.625 153.125C72.625 160.374 78.5013 166.25 85.75 166.25H91V175H85.75C78.5943 175 72.241 171.564 68.25 166.252C64.259 171.564 57.9057 175 50.75 175H45.5V166.25H50.75C57.9987 166.25 63.875 160.374 63.875 153.125Z" fill="#875AEC"/>
</g>
</g>
<g clip-path="url(#clip6)">
<circle cx="141.75" cy="83.125" r="5.25" fill="#FFDC62"/>
<circle cx="176.75" cy="83.125" r="5.25" fill="#FFDC62"/>
<path d="M136.5 61.25H141.75C148.906 61.25 155.259 64.6859 159.25 69.9979C163.241 64.6859 169.594 61.25 176.75 61.25H182V70H176.75C169.501 70 163.625 75.8763 163.625 83.125L159.25 77.875L154.875 83.125C154.875 75.8763 148.999 70 141.75 70H136.5V61.25Z" fill="#875AEC"/>
<path d="M154.875 83.125L159.25 88.375L163.625 83.125C163.625 90.3737 169.501 96.25 176.75 96.25H182V105H176.75C169.594 105 163.241 101.564 159.25 96.2521C155.259 101.564 148.906 105 141.75 105H136.5V96.25H141.75C148.999 96.25 154.875 90.3737 154.875 83.125Z" fill="#875AEC"/>
<circle cx="96.25" cy="118.125" r="5.25" fill="#FFDC62"/>
<circle cx="131.25" cy="118.125" r="5.25" fill="#FFDC62"/>
<path d="M91 96.25H96.25C103.406 96.25 109.759 99.6859 113.75 104.998C117.741 99.6859 124.094 96.25 131.25 96.25H136.5V105H131.25C124.001 105 118.125 110.876 118.125 118.125L113.75 112.875L109.375 118.125C109.375 110.876 103.499 105 96.25 105H91V96.25Z" fill="#875AEC"/>
<path d="M109.375 118.125L113.75 123.375L118.125 118.125C118.125 125.374 124.001 131.25 131.25 131.25H136.5V140H131.25C124.094 140 117.741 136.564 113.75 131.252C109.759 136.564 103.406 140 96.25 140H91V131.25H96.25C103.499 131.25 109.375 125.374 109.375 118.125Z" fill="#875AEC"/>
<g clip-path="url(#clip7)">
<path d="M136.5 131.25H141.75C148.906 131.25 155.259 134.686 159.25 139.998C163.241 134.686 169.594 131.25 176.75 131.25H182V140H176.75C169.501 140 163.625 145.876 163.625 153.125L159.25 147.875L154.875 153.125C154.875 145.876 148.999 140 141.75 140H136.5V131.25Z" fill="#875AEC"/>
<path d="M154.875 153.125L159.25 158.375L163.625 153.125C163.625 160.374 169.501 166.25 176.75 166.25H182V175H176.75C169.594 175 163.241 171.564 159.25 166.252C155.259 171.564 148.906 175 141.75 175H136.5V166.25H141.75C148.999 166.25 154.875 160.374 154.875 153.125Z" fill="#875AEC"/>
</g>
</g>
<defs>
<clipPath id="clip0">
<rect width="91" height="70" fill="white"/>
</clipPath>
<clipPath id="clip1">
<rect width="91" height="8.75" fill="white" transform="translate(0 61.25)"/>
</clipPath>
<clipPath id="clip2">
<rect width="91" height="70" fill="white" transform="translate(91)"/>
</clipPath>
<clipPath id="clip3">
<rect width="91" height="8.75" fill="white" transform="translate(91 61.25)"/>
</clipPath>
<clipPath id="clip4">
<rect width="91" height="70" fill="white" transform="translate(0 70)"/>
</clipPath>
<clipPath id="clip5">
<rect width="91" height="8.75" fill="white" transform="translate(0 131.25)"/>
</clipPath>
<clipPath id="clip6">
<rect width="91" height="70" fill="white" transform="translate(91 70)"/>
</clipPath>
<clipPath id="clip7">
<rect width="91" height="8.75" fill="white" transform="translate(91 131.25)"/>
</clipPath>
</defs>
</svg>
